<?xml version="1.0" encoding="UTF-8"?>
<svg width="136px" height="32px" viewBox="0 0 136 32" version="1.1" xmlns="http://www.w3.org/2000/svg" xmlns:xlink="http://www.w3.org/1999/xlink">
    <!-- Generator: Sketch 52.4 (67378) - http://www.bohemiancoding.com/sketch -->
    <title>Page 1</title>
    <desc>Created with Sketch.</desc>
    <defs>
        <polygon id="path-1" points="0.0111938462 31.7908497 25.7965846 31.7908497 25.7965846 0.112376471 0.0111938462 0.112376471"></polygon>
        <polygon id="path-3" points="0 31.9305621 136 31.9305621 136 0 0 0"></polygon>
    </defs>
    <g id="Ideas-and-Process" stroke="none" stroke-width="1" fill="none" fill-rule="evenodd">
        <g id="The-Team" transform="translate(-117.000000, -71.000000)">
            <g id="Page-1" transform="translate(117.000000, 71.000000)">
                <path d="M6.29192492,31.3602719 L6.29192492,10.0457621 L0.000146461538,14.1290039 L0.000146461538,8.42631111 C4.03955569,6.31263791 7.234928,3.69679477 9.58563569,0.5792 L11.7815126,0.5792 L11.7815126,31.3602719 L6.29192492,31.3602719 Z" id="Fill-1" fill="#1C60E8"></path>
                <polygon id="Fill-3" fill="#1C60E8" points="68.122672 31.3510693 61.9256751 31.3510693 60.5434966 17.4827294 54.3343643 31.7844288 50.5370351 31.7844288 44.2509058 17.9798797 42.7120135 31.3510693 36.5359397 31.3510693 39.8436689 0.684193464 44.2178474 0.684193464 52.3715705 20.570834 60.3773674 0.684193464 64.7304135 0.684193464"></polygon>
                <g id="Group-7" transform="translate(70.720000, 0.139712)">
                    <mask id="mask-2" fill="white">
                        <use xlink:href="#path-1"></use>
                    </mask>
                    <g id="Clip-6"></g>
                    <path d="M16.95512,16.8496314 C15.8288308,16.602834 14.9837477,16.5003503 14.4215446,16.4792261 C10.7348985,16.3390954 6.60928615,18.3230954 6.60928615,22.0106248 C6.60928615,24.7479843 8.07808615,26.1166641 11.0167323,26.1166641 C14.9755877,26.1166641 16.95512,23.978102 16.95512,19.7011869 L16.95512,16.8496314 Z M17.5884615,28.1696837 C16.9900615,29.234468 15.9476738,30.104115 14.46088,30.7786248 C12.9740862,31.4531346 11.4213846,31.7909124 9.80256615,31.7909124 C6.75846769,31.7909124 4.36570462,30.9689516 2.62385846,29.3246118 C0.882012308,27.680481 0.0111938462,25.3467817 0.0111938462,22.3243503 C0.0111938462,18.7886641 1.23833231,16.0228601 3.69260923,14.0269386 C6.14730462,12.031017 9.63539077,11.0329516 14.1574954,11.0329516 C14.93144,11.0329516 15.8466154,11.1755922 16.9021846,11.4606641 C16.9021846,7.86808889 14.7994154,6.07169673 10.5945046,6.07169673 C8.11344615,6.07169673 6.03704,6.51844183 4.36570462,7.41172288 L2.94063385,1.88011503 C5.21036923,0.701762092 7.91091077,0.112376471 11.0430954,0.112376471 C15.3538769,0.112376471 18.5122154,1.17214118 20.5181108,3.29146144 C22.5237969,5.41140915 23.5268492,9.42688627 23.5268492,15.3385203 L23.5268492,21.8679843 C23.5268492,25.9361673 24.2830092,28.4930301 25.7965846,29.5383634 C25.2509108,30.5646641 24.6439323,31.1971346 23.9756492,31.4343111 C23.3065292,31.6719059 22.5411631,31.7909124 21.6793415,31.7909124 C20.7292246,31.7909124 19.8755631,31.4102588 19.1194031,30.6502065 C18.3626154,29.8903634 17.8525108,29.0631739 17.5884615,28.1696837 Z" id="Fill-5" fill="#1C60E8" mask="url(#mask-2)"></path>
                </g>
                <mask id="mask-4" fill="white">
                    <use xlink:href="#path-3"></use>
                </mask>
                <g id="Clip-9"></g>
                <polygon id="Fill-8" fill="#1C60E8" mask="url(#mask-4)" points="99.5622523 31.3602092 106.239643 31.3602092 106.239643 0.822169935 99.5622523 0.822169935"></polygon>
                <path d="M129.40174,31.3602719 L129.40174,13.710285 C129.40174,11.1063634 128.939968,9.20518693 128.016214,8.00780131 C127.09246,6.80999739 125.583488,6.21140915 123.489716,6.21140915 C122.522023,6.21140915 121.488214,6.50631111 120.388706,7.09506928 C119.28878,7.68466405 118.431143,8.4166902 117.815377,9.29072941 L117.815377,31.3602719 L111.217285,31.3602719 C111.217285,31.3602719 111.639722,10.9313046 110.983365,5.58709542 C110.812842,4.20042876 110.0979,2.78301699 109.173728,2.20136993 C109.173728,2.20136993 109.873396,0.769317647 110.92227,0.37444183 C112.001063,-0.0319372549 113.66947,-0.222054902 114.839697,0.406023529 C116.752066,1.43253333 117.356743,3.71331765 117.356743,3.71331765 C119.151525,1.43211503 121.624633,0.252088889 125.12611,0.252088889 C128.486774,0.252088889 131.139193,1.34050719 133.083574,3.51671634 C135.027746,5.69355294 136.000042,8.73041569 136.000042,12.6268863 L136.000042,31.3602719 L129.40174,31.3602719 Z" id="Fill-10" fill="#1C60E8" mask="url(#mask-4)"></path>
                <path d="M14.5980098,22.3572078 L15.474896,20.2387242 C16.2105514,20.8705673 17.041616,21.1861752 17.9676714,21.1861752 C18.926576,21.1861752 19.4063422,20.8174431 19.4063422,20.0789333 C19.4063422,19.6464105 19.2617637,19.2914824 18.9726068,19.0147765 C18.6836591,18.7378614 18.1220837,18.4115869 17.2878806,18.0353255 C15.4682006,17.2194301 14.5586745,16.0766327 14.5586745,14.6075608 C14.5586745,13.6212078 14.9068345,12.8529987 15.6031545,12.3029333 C16.2992652,11.7530771 17.1893329,11.4778353 18.2729391,11.4778353 C19.3701452,11.4778353 20.4014437,11.7440837 21.3672529,12.2763712 L20.6575422,14.3415216 C20.1189822,13.8449987 19.3701452,13.596319 18.4112406,13.596319 C17.5504652,13.596319 17.120496,13.9654693 17.120496,14.7033516 C17.120496,14.9944889 17.2615175,15.2569725 17.5441883,15.4912209 C17.8264406,15.7252601 18.4306991,16.0394039 19.3571729,16.433234 C20.2832283,16.8270641 20.9498375,17.3045542 21.3572098,17.864868 C21.7643729,18.4256 21.9681637,19.1034562 21.9681637,19.8980183 C21.9681637,20.9556915 21.6049391,21.7874824 20.8793268,22.3944366 C20.1535052,23.0011817 19.1665637,23.3044497 17.9185022,23.3044497 C17.2154868,23.3044497 16.6522375,23.2421229 16.2287545,23.1183059 C15.8050622,22.9942797 15.2614806,22.7403712 14.5980098,22.3572078" id="Fill-11" fill="#1C60E8" mask="url(#mask-4)"></path>
                <path d="M24.81864,13.8304418 L23.5969415,13.8304418 L23.5969415,11.6910431 L24.81864,11.6910431 L24.81864,8.39086013 L27.2819138,8.39086013 L27.2819138,11.6910431 L30.1789231,11.6910431 L30.1789231,13.8304418 L27.2819138,13.8304418 L27.2819138,18.8228601 C27.2819138,19.6389647 27.4003385,20.2158013 27.6367692,20.5529516 C27.8732,20.8898928 28.2870585,21.058468 28.8781354,21.058468 C29.4694215,21.058468 30.0211631,20.8846641 30.53336,20.5366379 L30.53336,22.9851608 C29.9619508,23.1980758 29.1474154,23.3045333 28.0899631,23.3045333 C27.0387877,23.3045333 26.2309477,22.9834876 25.6660246,22.3409778 C25.1011015,21.6988863 24.81864,20.7853176 24.81864,19.6000627 L24.81864,13.8304418 Z" id="Fill-12" fill="#1C60E8" mask="url(#mask-4)"></path>
            </g>
        </g>
    </g>
</svg>